HIERARCHY
ROOT root
{
	OFFSET	0	13.1	24.9
	CHANNELS 6  Xposition Yposition Zposition Xrotation Yrotation Zrotation
	JOINT spine_1
	{
		OFFSET	0	9.99999	0
		CHANNELS 3  Xrotation Yrotation Zrotation
		JOINT spine_2
		{
			OFFSET	0	112	-10
			CHANNELS 3  Xrotation Yrotation Zrotation
			JOINT spine_3
			{
				OFFSET	0	206.5	19.3
				CHANNELS 3  Xrotation Yrotation Zrotation
				JOINT spine_4
				{
					OFFSET	0	110.4	14.6
					CHANNELS 3  Xrotation Yrotation Zrotation
					JOINT neck_1
					{
						OFFSET	0	71.8	-50.3
						CHANNELS 3  Xrotation Yrotation Zrotation
						JOINT neck_2
						{
							OFFSET	0	86.2	-25.8
							CHANNELS 3  Xrotation Yrotation Zrotation
							JOINT head_ee
							{
								OFFSET	0	179.8	-8.7
								CHANNELS 3  Xrotation Yrotation Zrotation
								End Site
								{
									OFFSET	1	0	0
								}
							}
						}
					}
					JOINT left_clavicle
					{
						OFFSET	-43.2	22.4	-70.8
						CHANNELS 3  Xrotation Yrotation Zrotation
						JOINT left_shoulder
						{
							OFFSET	-93.9	-5.79999	48.7
							CHANNELS 3  Xrotation Yrotation Zrotation
							JOINT left_elbow
							{
								OFFSET	-291.4	-30.8	15.2
								CHANNELS 3  Xrotation Yrotation Zrotation
								JOINT left_lowarm_twist
								{
									OFFSET	-110.7	-3.89999	13.6
									CHANNELS 3  Xrotation Yrotation Zrotation
									JOINT left_hand
									{
										OFFSET	-110.7	-3.89999	13.6
										CHANNELS 3  Xrotation Yrotation Zrotation
										JOINT left_ee
										{
											OFFSET	-80.8	-5.10001	12.1
											CHANNELS 3  Xrotation Yrotation Zrotation
											End Site
											{
												OFFSET	1	0	0
											}
										}
									}
								}
							}
						}
					}
					JOINT right_clavicle
					{
						OFFSET	43.2	22.4	-70.8
						CHANNELS 3  Xrotation Yrotation Zrotation
						JOINT right_shoulder
						{
							OFFSET	93.9	-5.79999	48.7
							CHANNELS 3  Xrotation Yrotation Zrotation
							JOINT right_elbow
							{
								OFFSET	291.4	-30.8	15.2
								CHANNELS 3  Xrotation Yrotation Zrotation
								JOINT right_lowarm_twist
								{
									OFFSET	110.7	-3.89999	13.6
									CHANNELS 3  Xrotation Yrotation Zrotation
									JOINT right_hand
									{
										OFFSET	110.7	-3.89999	13.6
										CHANNELS 3  Xrotation Yrotation Zrotation
										JOINT right_ee
										{
											OFFSET	80.8	-5.10001	12.1
											CHANNELS 3  Xrotation Yrotation Zrotation
											End Site
											{
												OFFSET	1	0	0
											}
										}
									}
								}
							}
						}
					}
				}
			}
		}
	}
	JOINT left_hip
	{
		OFFSET	-82.8	-127.5	0.300001
		CHANNELS 3  Xrotation Yrotation Zrotation
		JOINT left_knee
		{
			OFFSET	-28.2	-396.7	2.2
			CHANNELS 3  Xrotation Yrotation Zrotation
			JOINT left_ankle
			{
				OFFSET	-11.7	-411.3	35.4
				CHANNELS 3  Xrotation Yrotation Zrotation
				JOINT left_toes
				{
					OFFSET	0	-60	-88.6
					CHANNELS 3  Xrotation Yrotation Zrotation
					JOINT left_foot_ee
					{
						OFFSET	-22.5	-16.5	-42.2
						CHANNELS 3  Xrotation Yrotation Zrotation
						End Site
						{
							OFFSET	1	0	0
						}
					}
				}
			}
		}
	}
	JOINT right_hip
	{
		OFFSET	82.8	-127.5	0.300001
		CHANNELS 3  Xrotation Yrotation Zrotation
		JOINT right_knee
		{
			OFFSET	28.2	-396.7	2.2
			CHANNELS 3  Xrotation Yrotation Zrotation
			JOINT right_ankle
			{
				OFFSET	11.7	-411.3	35.4
				CHANNELS 3  Xrotation Yrotation Zrotation
				JOINT right_toes
				{
					OFFSET	0	-60	-88.6
					CHANNELS 3  Xrotation Yrotation Zrotation
					JOINT right_foot_ee
					{
						OFFSET	22.5	-16.5	-42.2
						CHANNELS 3  Xrotation Yrotation Zrotation
						End Site
						{
							OFFSET	1	0	0
						}
					}
				}
			}
		}
	}
}
MOTION
Frames: 14
Frame Time: 0.02
3177.02 653.055 -1669.29 -13.8779667515 8.49506047896 -3.35277300614 2.86129 0.674847 2.80756 2.86554 0.494901 2.84477 2.88911 0.0317522 2.88729 2.8778 0.48716 2.84611 -3.21626 10.6948 -0.0981104 -3.05853 19.5547 1.4662 -0.0 0.0 -0.0 6.12497 21.3179 11.3412 -32.9732 -20.1267 60.2236 0.77681 -21.0471 0.144306 3.3772 0.106688 -0.41811 -0.0678315 19.5822 7.50556 -0.0 0.0 -0.0 12.261 26.7516 -23.8898 0.241192 20.795 -50.9262 1.67301 39.6474 -0.603139 24.4799 -0.203737 3.09676 0.489848 5.4984 -0.972474 0.0 0.0 0.0 42.128 9.68282 -2.51191 -8.93228 0.263435 1.34413 -5.31167 13.8663 0.789377 -25.2104 0.0 0.0 -0.0 0.0 -0.0 16.8807 8.10028 15.9361 -33.6085 0.110976 -5.08337 23.4053 16.6433 3.42548 -4.39204 0.0 0.0 0.0 0.0 0.0 
3156.8517217 653.9 -1689.23069145 -13.3148339671 7.87226384608 -4.05630146678 2.80829 0.530219 2.79562 2.81257 0.351325 2.82367 2.82887 -0.109742 2.84331 2.81775 0.3405 2.82499 -2.61212 11.8085 0.543398 -2.40681 21.0106 2.19389 -0.0 0.0 -0.0 6.31969 22.2092 11.5673 -32.4143 -20.107 59.2408 0.874168 -23.4142 0.181148 4.34858 0.132789 -0.539446 0.126845 18.8241 8.3947 -0.0 0.0 -0.0 11.8397 26.9019 -22.9113 -0.574917 20.3198 -52.6147 1.6472 39.2104 -0.586744 22.6361 -0.234702 2.86328 0.528412 4.87102 -1.49727 0.0 0.0 0.0 41.1513 9.31417 -1.79066 -11.7459 0.302674 1.77404 -1.81024 15.9848 0.268307 -20.6709 0.0 0.0 -0.0 0.0 -0.0 15.0268 8.82748 17.3304 -33.9641 0.128068 -5.13526 20.8391 13.9099 3.03412 -4.50756 0.0 0.0 0.0 0.0 0.0 
3156.62366278 653.9 -1688.99736038 -13.3367074219 8.51365024937 -3.90281385988 2.80829 0.530219 2.79562 2.81257 0.351325 2.82367 2.82887 -0.109742 2.84331 2.81775 0.3405 2.82499 -2.61212 11.8085 0.543398 -2.40681 21.0106 2.19389 -0.0 0.0 -0.0 6.31969 22.2092 11.5673 -32.4143 -20.107 59.2408 0.874168 -23.4142 0.181148 4.34858 0.132789 -0.539446 0.126845 18.8241 8.3947 -0.0 0.0 -0.0 11.8397 26.9019 -22.9113 -0.574917 20.3198 -52.6147 1.6472 39.2104 -0.586744 22.6361 -0.234702 2.86328 0.528412 4.87102 -1.49727 0.0 0.0 0.0 41.1513 9.31417 -1.79066 -11.7459 0.302674 1.77404 -1.81024 15.9848 0.268307 -20.6709 0.0 0.0 -0.0 0.0 -0.0 15.0268 8.82748 17.3304 -33.9641 0.128068 -5.13526 20.8391 13.9099 3.03412 -4.50756 0.0 0.0 0.0 0.0 0.0 
3156.47075174 653.9 -1688.83786487 -13.3525292088 8.9479649434 -3.7985815081 2.80829 0.530219 2.79562 2.81257 0.351325 2.82367 2.82887 -0.109742 2.84331 2.81775 0.3405 2.82499 -2.61212 11.8085 0.543398 -2.40681 21.0106 2.19389 -0.0 0.0 -0.0 6.31969 22.2092 11.5673 -32.4143 -20.107 59.2408 0.874168 -23.4142 0.181148 4.34858 0.132789 -0.539446 0.126845 18.8241 8.3947 -0.0 0.0 -0.0 11.8397 26.9019 -22.9113 -0.574917 20.3198 -52.6147 1.6472 39.2104 -0.586744 22.6361 -0.234702 2.86328 0.528412 4.87102 -1.49727 0.0 0.0 0.0 41.1513 9.31417 -1.79066 -11.7459 0.302674 1.77404 -1.81024 15.9848 0.268307 -20.6709 0.0 0.0 -0.0 0.0 -0.0 15.0268 8.82748 17.3304 -33.9641 0.128068 -5.13526 20.8391 13.9099 3.03412 -4.50756 0.0 0.0 0.0 0.0 0.0 
3083.86878375 670.696 -1777.58852917 -11.5339980494 6.46636347861 -3.73540788512 2.72452 0.212928 2.52737 2.72807 0.0517262 2.5358 2.72949 -0.363486 2.51016 2.7207 0.0373766 2.53605 -1.4915 11.3433 0.783817 -1.26705 19.8193 2.21653 -0.0 0.0 -0.0 6.54485 23.1617 11.8197 -26.6557 -21.6376 55.4618 0.841338 -22.6249 0.168309 2.99963 0.0959877 -0.371067 -0.924847 18.8691 2.07121 -0.0 0.0 -0.0 9.42714 26.2697 -17.5568 -6.17331 17.7337 -59.6835 1.38954 34.5392 -0.432004 23.3903 -0.222945 2.9589 0.381464 1.61494 -1.87541 0.0 0.0 0.0 36.6471 9.13247 -0.0707242 -17.3426 0.317807 2.63227 4.42007 16.3808 -0.645968 -16.9866 0.0 0.0 -0.0 0.0 -0.0 15.2492 22.4023 14.5315 -43.5639 0.708924 -6.48984 13.4126 1.05598 1.9048 -4.81073 0.0 0.0 0.0 0.0 0.0 
3069.7906921 671.366 -1801.83545881 -11.2200071199 8.07885580713 -3.15319840593 2.80743 0.18806 2.33867 2.81047 0.0389048 2.34589 2.81125 -0.341757 2.32121 2.80373 0.0290189 2.34604 -2.01857 10.6897 1.07134 -1.84404 18.4818 2.51549 -0.0 0.0 -0.0 5.88359 23.5279 10.8524 -24.9307 -23.2314 54.5782 0.870551 -23.3277 0.179713 2.2749 0.0745801 -0.280969 -1.04173 17.7604 0.887065 -0.0 0.0 -0.0 8.49328 26.0236 -15.5114 -7.83695 16.5152 -62.2732 1.22724 31.2958 -0.34377 23.9343 -0.213684 3.02777 0.365474 0.775602 -2.11857 0.0 0.0 0.0 34.5821 9.52545 0.463384 -17.7848 0.315429 2.70007 10.1649 14.9485 -1.45507 -16.4627 0.0 0.0 -0.0 0.0 -0.0 18.1906 25.8643 11.9023 -50.7697 1.28986 -7.43381 15.9703 -2.16357 2.22868 -3.50093 0.0 0.0 0.0 0.0 0.0 
3067.54110796 671.366 -1799.98351676 -11.2487213435 9.03934397045 -2.96027166522 2.80743 0.18806 2.33867 2.81047 0.0389048 2.34589 2.81125 -0.341757 2.32121 2.80373 0.0290189 2.34604 -2.01857 10.6897 1.07134 -1.84404 18.4818 2.51549 -0.0 0.0 -0.0 5.88359 23.5279 10.8524 -24.9307 -23.2314 54.5782 0.870551 -23.3277 0.179713 2.2749 0.0745801 -0.280969 -1.04173 17.7604 0.887065 -0.0 0.0 -0.0 8.49328 26.0236 -15.5114 -7.83695 16.5152 -62.2732 1.22724 31.2958 -0.34377 23.9343 -0.213684 3.02777 0.365474 0.775602 -2.11857 0.0 0.0 0.0 34.5821 9.52545 0.463384 -17.7848 0.315429 2.70007 10.1649 14.9485 -1.45507 -16.4627 0.0 0.0 -0.0 0.0 -0.0 18.1906 25.8643 11.9023 -50.7697 1.28986 -7.43381 15.9703 -2.16357 2.22868 -3.50093 0.0 0.0 0.0 0.0 0.0 
3066.22590099 671.366 -1798.87044123 -11.2672805908 9.60724719887 -2.84571342367 2.80743 0.18806 2.33867 2.81047 0.0389048 2.34589 2.81125 -0.341757 2.32121 2.80373 0.0290189 2.34604 -2.01857 10.6897 1.07134 -1.84404 18.4818 2.51549 -0.0 0.0 -0.0 5.88359 23.5279 10.8524 -24.9307 -23.2314 54.5782 0.870551 -23.3277 0.179713 2.2749 0.0745801 -0.280969 -1.04173 17.7604 0.887065 -0.0 0.0 -0.0 8.49328 26.0236 -15.5114 -7.83695 16.5152 -62.2732 1.22724 31.2958 -0.34377 23.9343 -0.213684 3.02777 0.365474 0.775602 -2.11857 0.0 0.0 0.0 34.5821 9.52545 0.463384 -17.7848 0.315429 2.70007 10.1649 14.9485 -1.45507 -16.4627 0.0 0.0 -0.0 0.0 -0.0 18.1906 25.8643 11.9023 -50.7697 1.28986 -7.43381 15.9703 -2.16357 2.22868 -3.50093 0.0 0.0 0.0 0.0 0.0 
3065.11589207 671.366 -1797.91306851 -11.2840029181 10.0903611957 -2.74795082888 2.80743 0.18806 2.33867 2.81047 0.0389048 2.34589 2.81125 -0.341757 2.32121 2.80373 0.0290189 2.34604 -2.01857 10.6897 1.07134 -1.84404 18.4818 2.51549 -0.0 0.0 -0.0 5.88359 23.5279 10.8524 -24.9307 -23.2314 54.5782 0.870551 -23.3277 0.179713 2.2749 0.0745801 -0.280969 -1.04173 17.7604 0.887065 -0.0 0.0 -0.0 8.49328 26.0236 -15.5114 -7.83695 16.5152 -62.2732 1.22724 31.2958 -0.34377 23.9343 -0.213684 3.02777 0.365474 0.775602 -2.11857 0.0 0.0 0.0 34.5821 9.52545 0.463384 -17.7848 0.315429 2.70007 10.1649 14.9485 -1.45507 -16.4627 0.0 0.0 -0.0 0.0 -0.0 18.1906 25.8643 11.9023 -50.7697 1.28986 -7.43381 15.9703 -2.16357 2.22868 -3.50093 0.0 0.0 0.0 0.0 0.0 
3053.25938194 675.994 -1819.79943445 -11.0701603766 11.5753197806 -2.03209641867 3.09339 0.186629 2.20053 3.09609 0.0462597 2.20795 3.09695 -0.301208 2.1878 3.09027 0.0480072 2.20791 -2.28864 9.80746 1.87503 -2.16163 16.2844 3.28005 -0.0 0.0 -0.0 5.77701 23.7491 10.6886 -23.8567 -24.2161 53.425 0.879379 -23.5386 0.183224 1.8145 0.0603884 -0.223874 -1.39177 16.9938 -1.58073 -0.0 0.0 -0.0 8.0872 25.8894 -14.6287 -8.91434 15.8014 -64.9449 1.06216 27.7511 -0.262385 24.2392 -0.208206 3.06634 0.368776 -0.451633 -2.65089 0.0 0.0 0.0 33.0103 9.74638 0.728766 -18.8449 0.307596 2.86253 14.3907 14.242 -2.02617 -16.327 0.0 0.0 -0.0 0.0 -0.0 20.2227 26.796 9.71477 -54.9608 1.68111 -7.94735 14.767 -4.87813 2.0643 -3.25174 0.0 0.0 0.0 0.0 0.0 
3050.48327529 675.994 -1817.47312232 -11.1140789966 12.6204312909 -1.82255226765 3.09339 0.186629 2.20053 3.09609 0.0462597 2.20795 3.09695 -0.301208 2.1878 3.09027 0.0480072 2.20791 -2.28864 9.80746 1.87503 -2.16163 16.2844 3.28005 -0.0 0.0 -0.0 5.77701 23.7491 10.6886 -23.8567 -24.2161 53.425 0.879379 -23.5386 0.183224 1.8145 0.0603884 -0.223874 -1.39177 16.9938 -1.58073 -0.0 0.0 -0.0 8.0872 25.8894 -14.6287 -8.91434 15.8014 -64.9449 1.06216 27.7511 -0.262385 24.2392 -0.208206 3.06634 0.368776 -0.451633 -2.65089 0.0 0.0 0.0 33.0103 9.74638 0.728766 -18.8449 0.307596 2.86253 14.3907 14.242 -2.02617 -16.327 0.0 0.0 -0.0 0.0 -0.0 20.2227 26.796 9.71477 -54.9608 1.68111 -7.94735 14.767 -4.87813 2.0643 -3.25174 0.0 0.0 0.0 0.0 0.0 
3044.85157983 675.994 -1812.47271247 -11.2186956592 14.7931365846 -1.38112594437 3.09339 0.186629 2.20053 3.09609 0.0462597 2.20795 3.09695 -0.301208 2.1878 3.09027 0.0480072 2.20791 -2.28864 9.80746 1.87503 -2.16163 16.2844 3.28005 -0.0 0.0 -0.0 5.77701 23.7491 10.6886 -23.8567 -24.2161 53.425 0.879379 -23.5386 0.183224 1.8145 0.0603884 -0.223874 -1.39177 16.9938 -1.58073 -0.0 0.0 -0.0 8.0872 25.8894 -14.6287 -8.91434 15.8014 -64.9449 1.06216 27.7511 -0.262385 24.2392 -0.208206 3.06634 0.368776 -0.451633 -2.65089 0.0 0.0 0.0 33.0103 9.74638 0.728766 -18.8449 0.307596 2.86253 14.3907 14.242 -2.02617 -16.327 0.0 0.0 -0.0 0.0 -0.0 20.2227 26.796 9.71477 -54.9608 1.68111 -7.94735 14.767 -4.87813 2.0643 -3.25174 0.0 0.0 0.0 0.0 0.0 
3021.53899502 678.816 -1821.94077705 -10.988900212 18.7483459969 0.00958253858917 3.2271 0.0937814 1.90061 3.22911 -0.027327 1.90272 3.22743 -0.321661 1.87555 3.22252 -0.0214724 1.9028 -2.93726 9.08779 2.41019 -2.84479 14.6434 3.80948 -0.0 0.0 -0.0 5.09556 22.3371 9.78994 -21.6097 -26.4856 52.9765 0.946305 -25.1154 0.210796 1.62126 0.0542953 -0.199943 -1.30807 16.2529 -1.40515 -0.0 0.0 -0.0 7.30703 25.7625 -12.9253 -9.96375 15.1039 -66.9839 0.958012 25.3872 -0.21579 24.8057 -0.197485 3.1379 0.351054 0.120912 -2.29469 0.0 0.0 0.0 31.1068 9.81073 0.946742 -18.8646 0.307422 2.86555 17.7022 14.1376 -2.45925 -15.9722 0.0 0.0 -0.0 0.0 -0.0 23.0257 29.2426 6.49051 -58.1079 1.99917 -8.31369 16.3792 -7.29129 2.27217 -2.41066 0.0 0.0 0.0 0.0 0.0 
2996.13711607 686.948 -1840.75555397 -10.7490837659 23.414830626 1.19453781711 3.42903 0.00143922 1.69859 3.43063 -0.106634 1.69524 3.42676 -0.362118 1.65955 3.42293 -0.0955176 1.6959 -6.3339 7.96422 2.85933 -6.30796 12.6612 4.40698 -0.0 0.0 -0.0 4.85218 23.0479 9.41919 -19.817 -27.3011 52.5494 1.07551 -28.0468 0.268627 1.37416 0.0463863 -0.169373 -1.54779 16.4033 -2.80597 -0.0 0.0 -0.0 6.54678 20.4068 -11.7567 -11.1954 13.6352 -68.9457 0.814171 21.9649 -0.158002 24.6178 -0.201119 3.11418 0.218192 -0.685014 -1.74306 0.0 0.0 0.0 28.4383 10.0811 1.40459 -18.2645 0.312257 2.7736 18.0274 12.5917 -2.49389 -16.1733 0.0 0.0 -0.0 0.0 -0.0 24.5658 28.1534 5.22754 -60.2139 2.22312 -8.54897 18.5963 -7.53433 2.55523 -1.78605 0.0 0.0 0.0 0.0 0.0 
